# xmcd
#
# Track frame offsets:
#	150
#	12194
#	22806
#	29388
#	39160
#	48523
#	61758
#	67643
#	73729
#	83883
#	99564
#	112336
#	123564
#	130597
#	140615
#	158746
#	175324
#	181334
#
# Disc length: 3004 seconds
#
# Revision: 0
# Processed by: cddbd v1.5.2PL0 Copyright (c) Steve Scherf et al.
# Submitted via: EasyCDDAExtractor 16.0.6.1
#
DISCID=ea0bba12
DTITLE=Θεοδωράκης Μίκης - Ο Μίκης ερμηνεύει Μίκη-Έσσεν 9 Οκτ.1977
DYEAR=1977
DGENRE=Έντεχνη λαϊκή
TTITLE0=Θεοδωράκης Μίκης - Είμαι καλά[ΜΕλευθερίου,χορ.ΜιχαηλίδουΖορμπαλάΠανδής
TTITLE0=Παπακ/ουΘωμ/λος]
TTITLE1=Θεοδωράκης Μίκης - Μαργαρίτα Μαγιοπούλα [Ι. Καμπανέλλη]
TTITLE2=Θεοδωράκης Μίκης-χορωδία - Με τόσα φύλλα [Γ. Ρίτσου]
TTITLE3=Θεοδωράκης Μίκης - Είμαστε δυό [Μ. Θεοδωράκη]
TTITLE4=Θεοδωράκης Μίκης - Ο ταμένος [Γ. Ρίτσου]
TTITLE5=Θεοδωράκης Μίκης - Τη Ρωμιοσύνη μη την κλαις [Γ. Ρίτσου]
TTITLE6=Θεοδωράκης Μίκης-χορωδία - Το σφαγείο [Μ. Θεοδωράκη]
TTITLE7=Θεοδωράκης Μίκης-χορωδία - Όταν σφίγγουν το χέρι [Γ. Ρίτσου]
TTITLE8=Θεοδωράκης Μίκης - Μη ξεχνάς τον Ορωπό [Μ. Θεοδωράκη]
TTITLE9=Θεοδωράκης Μίκης - Καϋμός [Δ. Χριστοδούλου]
TTITLE10=Θεοδωράκης Μίκης - Δόξα τω Θεώ [Ι. Καμπανέλλη]
TTITLE11=Θεοδωράκης Μίκης-χορωδία - Βάρκα στο γιαλό [Μ. Θεοδωράκη]
TTITLE12=Θεοδωράκης Μίκης-χορωδία - Ποτέ, ποτέ, ποτέ [Μ. Θεοδωράκη]
TTITLE13=Θεοδωράκης Μίκης - Και πια δεν θά 'χει μείνει τίποτα από μένα [Ρ. Χατ
TTITLE13=ζιδάκη]
TTITLE14=Θεοδωράκης Μίκης-χορωδία - Μακριά πολύ μακριά [Ρ. Χατζιδάκη]
TTITLE15=Θεοδωράκης Μίκης-χορωδία - Ο χρόνος παραμορφώθηκε [Ρ. Χατζιδάκη]
TTITLE16=Θεοδωράκης Μίκης - Και τώρα πως κλειδώσανε [Γ. Ρίτσου]
TTITLE17=Άνευ ερμηνευτού - Ζορμπάς [μπουζούκι Λάκης Καρνέζης]
EXTD=
EXTT0=
EXTT1=
EXTT2=
EXTT3=
EXTT4=
EXTT5=
EXTT6=
EXTT7=
EXTT8=
EXTT9=
EXTT10=
EXTT11=
EXTT12=
EXTT13=
EXTT14=
EXTT15=
EXTT16=
EXTT17=
PLAYORDER=
